<svg width="30" height="30" viewBox="0 0 30 30" fill="none" xmlns="http://www.w3.org/2000/svg">
<path fill-rule="evenodd" clip-rule="evenodd" d="M15 0C6.71377 0 0 6.71864 0 14.9973C0 22.8667 6.0712 29.3261 13.7833 29.9459V30H15C23.2862 30 30 23.2814 30 15.0027C30 6.72469 23.2868 0 15 0ZM18.3145 27.1252C17.3735 27.3819 16.3884 27.532 15.3731 27.5616H15C13.3069 27.5616 11.6917 27.2262 10.2172 26.6184C11.6449 21.4743 15.5151 17.7897 19.9449 16.1433C20.7094 19.8482 20.1545 23.8184 18.3145 27.1252ZM19.2704 13.8C14.2145 15.621 9.79891 19.723 8.0247 25.4478C4.65423 23.1935 2.43344 19.353 2.43344 14.9973C2.43344 13.4527 2.71243 11.9729 3.22282 10.6057C4.74415 11.3637 6.37089 11.8999 8.04379 12.198C10.1748 12.5887 12.3582 12.5758 14.4831 12.1927C15.6925 11.9743 16.8733 11.6265 18.0054 11.163C18.5094 12.0008 18.9332 12.8836 19.2704 13.8ZM22.2904 15.4736C23.021 18.8459 22.7994 22.4197 21.6334 25.6755C25.0928 23.5212 27.4283 19.7326 27.5606 15.3924C25.841 15.0806 24.0484 15.1187 22.2904 15.4736ZM27.3915 12.9014C25.4871 12.634 23.5287 12.7209 21.6156 13.1295C21.2388 12.0725 20.7632 11.0543 20.1966 10.0874C21.7684 9.17963 23.2038 8.0371 24.4376 6.70487C25.9467 8.42068 26.9956 10.5508 27.3915 12.9014ZM8.47373 9.8033C7.02045 9.54457 5.60887 9.07813 4.29158 8.4198C5.42451 6.58015 7.0184 5.05425 8.91244 4.0034L8.92705 4.008L8.9276 4.00817L8.92767 4.0082L8.9277 4.0082C9.13404 4.07314 9.33103 4.13514 9.52073 4.20322C9.59071 4.22995 9.65924 4.25593 9.72622 4.28132L9.72728 4.28172L9.72733 4.28174L9.72737 4.28176C10.035 4.39839 10.3096 4.50253 10.5391 4.60891L10.6046 4.64164L10.6202 4.6489C10.7651 4.71628 10.9739 4.8158 11.162 4.90552C11.262 4.95324 11.3562 4.99814 11.4319 5.03396L11.4347 5.0355C11.498 5.06949 11.5512 5.09803 11.6007 5.12756C11.641 5.15372 11.677 5.17491 11.6963 5.1862C11.7316 5.20688 11.7679 5.22731 11.7978 5.24395C11.8234 5.25816 11.8484 5.27199 11.8672 5.2823L11.8767 5.2875L11.8967 5.29856L11.8993 5.30002C11.9271 5.3161 11.961 5.33541 11.9996 5.35744C12.0823 5.40464 12.1869 5.46431 12.3017 5.53153C12.3827 5.57897 12.4584 5.6242 12.5202 5.6625C12.5661 5.69103 12.5911 5.70758 12.6006 5.71388L12.6012 5.71425C12.605 5.71685 12.606 5.71745 12.6044 5.71625L12.6577 5.75667L12.717 5.79188C12.8074 5.84551 12.8964 5.90713 13.0075 5.98402L13.0076 5.98404L13.0076 5.98407L13.0081 5.98439C13.0588 6.0195 13.1142 6.0578 13.1763 6.09999L13.2186 6.12863L13.2545 6.14888C13.2544 6.14892 13.2551 6.14935 13.2563 6.15023C13.2572 6.1508 13.2583 6.15154 13.2597 6.15248C13.2693 6.15899 13.2928 6.17479 13.3336 6.20405C13.3965 6.24905 13.4724 6.30553 13.5559 6.36835L13.6548 6.44288C13.7057 6.48127 13.7572 6.52017 13.8011 6.55299C13.8591 6.59635 13.9299 6.64899 13.9939 6.69333C14.9276 7.40744 15.7811 8.22285 16.541 9.12162C15.7326 9.41742 14.8993 9.64515 14.0509 9.79833C12.2015 10.1318 10.3125 10.1408 8.4801 9.80447L8.47692 9.80386L8.47373 9.8033ZM15 2.433C17.8844 2.433 20.5416 3.40583 22.6624 5.04072C21.5505 6.24369 20.2484 7.2682 18.8227 8.06996C17.8425 6.8241 16.7085 5.70242 15.4441 4.7393L15.4136 4.71605L15.3819 4.69491L15.3733 4.68891C15.3665 4.68414 15.3575 4.6777 15.346 4.66932C15.3226 4.65236 15.2937 4.63096 15.259 4.60498C15.2197 4.57554 15.1802 4.54576 15.1378 4.51377L15.1377 4.51371L15.129 4.50715C15.0947 4.4812 15.0583 4.45374 15.0185 4.42381C14.9323 4.35902 14.8378 4.28855 14.751 4.22635C14.6903 4.18287 14.6031 4.12138 14.5141 4.06716L14.4576 4.02808L14.4573 4.02786L14.4573 4.02785C14.3414 3.94762 14.1677 3.82726 14.0096 3.73018C13.8619 3.62665 13.6623 3.50869 13.5315 3.43211C13.4049 3.35796 13.2685 3.28015 13.1839 3.23183L13.1832 3.23146L13.1191 3.19479C13.1035 3.18569 13.0899 3.17813 13.0843 3.17501L13.0843 3.175L13.084 3.17483L13.0833 3.17441L13.0504 3.15624L13.0393 3.15011C13.0204 3.13972 13.0015 3.12932 12.9819 3.11838C12.9594 3.10587 12.9412 3.09555 12.9279 3.08782L12.9188 3.08142L12.8865 3.06169C12.7696 2.99029 12.6479 2.92507 12.5818 2.88967L12.5804 2.88892L12.5573 2.87658L12.5291 2.86137L12.5001 2.84766C12.442 2.82025 12.3561 2.77936 12.2587 2.7329C13.1411 2.53656 14.0584 2.433 15 2.433Z" fill="white"/>
</svg>
